<mxfile host="app.diagrams.net" agent="Mozilla/5.0 (Windows NT 10.0; Win64; x64) AppleWebKit/537.36 (KHTML, like Gecko) Chrome/135.0.0.0 Safari/537.36" version="26.2.9">
  <diagram name="Page-1" id="TvlfPI-XHOTMkAkQHqAN">
    <mxGraphModel dx="-983" dy="6800" grid="1" gridSize="10" guides="1" tooltips="1" connect="1" arrows="1" fold="1" page="1" pageScale="1" pageWidth="827" pageHeight="1169" math="0" shadow="0">
      <root>
        <mxCell id="0" />
        <mxCell id="1" parent="0" />
        <mxCell id="3Pgrj5yIYafNxYy-8f5n-1" value="" style="shape=folder;fontStyle=1;spacingTop=10;tabWidth=448;tabHeight=110;tabPosition=left;html=1;whiteSpace=wrap;" vertex="1" parent="1">
          <mxGeometry x="4450" y="-4520" width="2301" height="2899" as="geometry" />
        </mxCell>
        <mxCell id="3Pgrj5yIYafNxYy-8f5n-2" value="" style="shape=folder;fontStyle=1;spacingTop=10;tabWidth=371;tabHeight=77;tabPosition=left;html=1;whiteSpace=wrap;" vertex="1" parent="1">
          <mxGeometry x="4526" y="-4347" width="2176" height="723" as="geometry" />
        </mxCell>
        <mxCell id="3Pgrj5yIYafNxYy-8f5n-3" value="&lt;font style=&quot;font-size: 36px;&quot;&gt;Serveur&lt;/font&gt;" style="text;align=center;fontStyle=1;verticalAlign=middle;spacingLeft=3;spacingRight=3;strokeColor=none;rotatable=0;points=[[0,0.5],[1,0.5]];portConstraint=eastwest;html=1;" vertex="1" parent="1">
          <mxGeometry x="4628.5" y="-4474" width="80" height="26" as="geometry" />
        </mxCell>
        <mxCell id="3Pgrj5yIYafNxYy-8f5n-4" value="&lt;font style=&quot;font-size: 36px;&quot;&gt;Communication&lt;/font&gt;" style="text;align=center;fontStyle=1;verticalAlign=middle;spacingLeft=3;spacingRight=3;strokeColor=none;rotatable=0;points=[[0,0.5],[1,0.5]];portConstraint=eastwest;html=1;" vertex="1" parent="1">
          <mxGeometry x="4658" y="-4317" width="80" height="26" as="geometry" />
        </mxCell>
        <mxCell id="3Pgrj5yIYafNxYy-8f5n-5" value="" style="shape=folder;fontStyle=1;spacingTop=10;tabWidth=371;tabHeight=77;tabPosition=left;html=1;whiteSpace=wrap;" vertex="1" parent="1">
          <mxGeometry x="4603.5" y="-4248" width="1543.5" height="561" as="geometry" />
        </mxCell>
        <mxCell id="3Pgrj5yIYafNxYy-8f5n-6" value="" style="shape=folder;fontStyle=1;spacingTop=10;tabWidth=371;tabHeight=77;tabPosition=left;html=1;whiteSpace=wrap;" vertex="1" parent="1">
          <mxGeometry x="6171" y="-4248" width="463.5" height="561" as="geometry" />
        </mxCell>
        <mxCell id="3Pgrj5yIYafNxYy-8f5n-7" value="&lt;font style=&quot;font-size: 36px;&quot;&gt;Controllers&lt;/font&gt;" style="text;align=center;fontStyle=1;verticalAlign=middle;spacingLeft=3;spacingRight=3;strokeColor=none;rotatable=0;points=[[0,0.5],[1,0.5]];portConstraint=eastwest;html=1;" vertex="1" parent="1">
          <mxGeometry x="4748" y="-4220" width="80" height="26" as="geometry" />
        </mxCell>
        <mxCell id="3Pgrj5yIYafNxYy-8f5n-8" value="&lt;font style=&quot;font-size: 36px;&quot;&gt;Gateway&lt;/font&gt;" style="text;align=center;fontStyle=1;verticalAlign=middle;spacingLeft=3;spacingRight=3;strokeColor=none;rotatable=0;points=[[0,0.5],[1,0.5]];portConstraint=eastwest;html=1;" vertex="1" parent="1">
          <mxGeometry x="6316" y="-4220" width="80" height="26" as="geometry" />
        </mxCell>
        <mxCell id="3Pgrj5yIYafNxYy-8f5n-9" value="" style="shape=folder;fontStyle=1;spacingTop=10;tabWidth=371;tabHeight=77;tabPosition=left;html=1;whiteSpace=wrap;" vertex="1" parent="1">
          <mxGeometry x="4523" y="-3508" width="2176" height="1793" as="geometry" />
        </mxCell>
        <mxCell id="3Pgrj5yIYafNxYy-8f5n-10" value="&lt;p style=&quot;margin:0px;margin-top:4px;text-align:center;&quot;&gt;&lt;b&gt;&lt;font style=&quot;font-size: 21px;&quot;&gt;QuizDatabaseController&lt;/font&gt;&lt;/b&gt;&lt;/p&gt;&lt;hr size=&quot;1&quot; style=&quot;border-style:solid;&quot;&gt;&lt;p style=&quot;margin:0px;margin-left:4px;&quot;&gt;&lt;/p&gt;&lt;p style=&quot;margin:0px;margin-left:4px;&quot;&gt;&lt;br&gt;&lt;/p&gt;" style="verticalAlign=top;align=left;overflow=fill;html=1;whiteSpace=wrap;" vertex="1" parent="1">
          <mxGeometry x="4636" y="-4150" width="278" height="140" as="geometry" />
        </mxCell>
        <mxCell id="3Pgrj5yIYafNxYy-8f5n-11" value="&lt;p style=&quot;margin:0px;margin-top:4px;text-align:center;&quot;&gt;&lt;b&gt;&lt;font style=&quot;font-size: 19px;&quot;&gt;QuestionDatabaseController&lt;/font&gt;&lt;/b&gt;&lt;/p&gt;&lt;hr size=&quot;1&quot; style=&quot;border-style:solid;&quot;&gt;&lt;p style=&quot;margin:0px;margin-left:4px;&quot;&gt;&lt;/p&gt;&lt;p style=&quot;margin:0px;margin-left:4px;&quot;&gt;&lt;br&gt;&lt;/p&gt;" style="verticalAlign=top;align=left;overflow=fill;html=1;whiteSpace=wrap;" vertex="1" parent="1">
          <mxGeometry x="4937" y="-4150" width="278" height="140" as="geometry" />
        </mxCell>
        <mxCell id="3Pgrj5yIYafNxYy-8f5n-12" value="&lt;p style=&quot;margin:0px;margin-top:4px;text-align:center;&quot;&gt;&lt;b&gt;&lt;font style=&quot;font-size: 21px;&quot;&gt;UserController&lt;/font&gt;&lt;/b&gt;&lt;/p&gt;&lt;hr size=&quot;1&quot; style=&quot;border-style:solid;&quot;&gt;&lt;p style=&quot;margin:0px;margin-left:4px;&quot;&gt;&lt;/p&gt;&lt;p style=&quot;margin:0px;margin-left:4px;&quot;&gt;&lt;br&gt;&lt;/p&gt;" style="verticalAlign=top;align=left;overflow=fill;html=1;whiteSpace=wrap;" vertex="1" parent="1">
          <mxGeometry x="5230" y="-4150" width="278" height="140" as="geometry" />
        </mxCell>
        <mxCell id="3Pgrj5yIYafNxYy-8f5n-13" value="&lt;p style=&quot;margin:0px;margin-top:4px;text-align:center;&quot;&gt;&lt;b&gt;&lt;font style=&quot;font-size: 21px;&quot;&gt;ShopController&lt;/font&gt;&lt;/b&gt;&lt;/p&gt;&lt;hr size=&quot;1&quot; style=&quot;border-style:solid;&quot;&gt;&lt;p style=&quot;margin:0px;margin-left:4px;&quot;&gt;&lt;/p&gt;&lt;p style=&quot;margin:0px;margin-left:4px;&quot;&gt;&lt;br&gt;&lt;/p&gt;" style="verticalAlign=top;align=left;overflow=fill;html=1;whiteSpace=wrap;" vertex="1" parent="1">
          <mxGeometry x="5523" y="-4150" width="278" height="140" as="geometry" />
        </mxCell>
        <mxCell id="3Pgrj5yIYafNxYy-8f5n-14" value="&lt;p style=&quot;margin:0px;margin-top:4px;text-align:center;&quot;&gt;&lt;b&gt;&lt;font style=&quot;font-size: 21px;&quot;&gt;GameSocketGateway&lt;/font&gt;&lt;/b&gt;&lt;/p&gt;&lt;hr size=&quot;1&quot; style=&quot;border-style:solid;&quot;&gt;&lt;p style=&quot;margin:0px;margin-left:4px;&quot;&gt;&lt;/p&gt;&lt;p style=&quot;margin:0px;margin-left:4px;&quot;&gt;&lt;br&gt;&lt;/p&gt;" style="verticalAlign=top;align=left;overflow=fill;html=1;whiteSpace=wrap;" vertex="1" parent="1">
          <mxGeometry x="5813.5" y="-4152" width="278" height="140" as="geometry" />
        </mxCell>
        <mxCell id="3Pgrj5yIYafNxYy-8f5n-15" value="&lt;p style=&quot;margin:0px;margin-top:4px;text-align:center;&quot;&gt;&lt;b&gt;&lt;font style=&quot;font-size: 21px;&quot;&gt;GameSocketGateway&lt;/font&gt;&lt;/b&gt;&lt;/p&gt;&lt;hr size=&quot;1&quot; style=&quot;border-style:solid;&quot;&gt;&lt;p style=&quot;margin:0px;margin-left:4px;&quot;&gt;&lt;/p&gt;&lt;p style=&quot;margin:0px;margin-left:4px;&quot;&gt;&lt;br&gt;&lt;/p&gt;" style="verticalAlign=top;align=left;overflow=fill;html=1;whiteSpace=wrap;" vertex="1" parent="1">
          <mxGeometry x="6190" y="-4152" width="278" height="140" as="geometry" />
        </mxCell>
        <mxCell id="3Pgrj5yIYafNxYy-8f5n-16" value="&lt;p style=&quot;margin:0px;margin-top:4px;text-align:center;&quot;&gt;&lt;b&gt;&lt;font style=&quot;font-size: 21px;&quot;&gt;ValidationController&lt;/font&gt;&lt;/b&gt;&lt;/p&gt;&lt;hr size=&quot;1&quot; style=&quot;border-style:solid;&quot;&gt;&lt;p style=&quot;margin:0px;margin-left:4px;&quot;&gt;&lt;/p&gt;&lt;p style=&quot;margin:0px;margin-left:4px;&quot;&gt;&lt;br&gt;&lt;/p&gt;" style="verticalAlign=top;align=left;overflow=fill;html=1;whiteSpace=wrap;" vertex="1" parent="1">
          <mxGeometry x="4636" y="-3990" width="278" height="140" as="geometry" />
        </mxCell>
        <mxCell id="3Pgrj5yIYafNxYy-8f5n-17" value="&lt;p style=&quot;margin:0px;margin-top:4px;text-align:center;&quot;&gt;&lt;b&gt;&lt;font style=&quot;font-size: 21px;&quot;&gt;EndlessModeController&lt;/font&gt;&lt;/b&gt;&lt;/p&gt;&lt;hr size=&quot;1&quot; style=&quot;border-style:solid;&quot;&gt;&lt;p style=&quot;margin:0px;margin-left:4px;&quot;&gt;&lt;/p&gt;&lt;p style=&quot;margin:0px;margin-left:4px;&quot;&gt;&lt;br&gt;&lt;/p&gt;" style="verticalAlign=top;align=left;overflow=fill;html=1;whiteSpace=wrap;" vertex="1" parent="1">
          <mxGeometry x="4937" y="-3990" width="278" height="140" as="geometry" />
        </mxCell>
        <mxCell id="3Pgrj5yIYafNxYy-8f5n-18" value="&lt;p style=&quot;margin:0px;margin-top:4px;text-align:center;&quot;&gt;&lt;b&gt;&lt;font style=&quot;font-size: 21px;&quot;&gt;AchievementController&lt;/font&gt;&lt;/b&gt;&lt;/p&gt;&lt;hr size=&quot;1&quot; style=&quot;border-style:solid;&quot;&gt;&lt;p style=&quot;margin:0px;margin-left:4px;&quot;&gt;&lt;/p&gt;&lt;p style=&quot;margin:0px;margin-left:4px;&quot;&gt;&lt;br&gt;&lt;/p&gt;" style="verticalAlign=top;align=left;overflow=fill;html=1;whiteSpace=wrap;" vertex="1" parent="1">
          <mxGeometry x="5230" y="-3990" width="278" height="140" as="geometry" />
        </mxCell>
        <mxCell id="3Pgrj5yIYafNxYy-8f5n-19" value="&lt;p style=&quot;margin:0px;margin-top:4px;text-align:center;&quot;&gt;&lt;b&gt;&lt;font style=&quot;font-size: 21px;&quot;&gt;HistoryController&lt;/font&gt;&lt;/b&gt;&lt;/p&gt;&lt;hr size=&quot;1&quot; style=&quot;border-style:solid;&quot;&gt;&lt;p style=&quot;margin:0px;margin-left:4px;&quot;&gt;&lt;/p&gt;&lt;p style=&quot;margin:0px;margin-left:4px;&quot;&gt;&lt;br&gt;&lt;/p&gt;" style="verticalAlign=top;align=left;overflow=fill;html=1;whiteSpace=wrap;" vertex="1" parent="1">
          <mxGeometry x="5523" y="-3990" width="278" height="140" as="geometry" />
        </mxCell>
        <mxCell id="3Pgrj5yIYafNxYy-8f5n-20" value="&lt;p style=&quot;margin:0px;margin-top:4px;text-align:center;&quot;&gt;&lt;b&gt;&lt;font style=&quot;font-size: 21px;&quot;&gt;RankController&lt;/font&gt;&lt;/b&gt;&lt;/p&gt;&lt;hr size=&quot;1&quot; style=&quot;border-style:solid;&quot;&gt;&lt;p style=&quot;margin:0px;margin-left:4px;&quot;&gt;&lt;/p&gt;&lt;p style=&quot;margin:0px;margin-left:4px;&quot;&gt;&lt;br&gt;&lt;/p&gt;" style="verticalAlign=top;align=left;overflow=fill;html=1;whiteSpace=wrap;" vertex="1" parent="1">
          <mxGeometry x="5813.5" y="-3990" width="278" height="140" as="geometry" />
        </mxCell>
        <mxCell id="3Pgrj5yIYafNxYy-8f5n-21" value="&lt;p style=&quot;margin:0px;margin-top:4px;text-align:center;&quot;&gt;&lt;b&gt;&lt;font style=&quot;font-size: 21px;&quot;&gt;AuthController&lt;/font&gt;&lt;/b&gt;&lt;/p&gt;&lt;hr size=&quot;1&quot; style=&quot;border-style:solid;&quot;&gt;&lt;p style=&quot;margin:0px;margin-left:4px;&quot;&gt;&lt;/p&gt;&lt;p style=&quot;margin:0px;margin-left:4px;&quot;&gt;&lt;br&gt;&lt;/p&gt;" style="verticalAlign=top;align=left;overflow=fill;html=1;whiteSpace=wrap;" vertex="1" parent="1">
          <mxGeometry x="4636" y="-3836" width="278" height="140" as="geometry" />
        </mxCell>
        <mxCell id="3Pgrj5yIYafNxYy-8f5n-22" value="&lt;p style=&quot;margin:0px;margin-top:4px;text-align:center;&quot;&gt;&lt;b&gt;&lt;font style=&quot;font-size: 21px;&quot;&gt;SoundController&lt;/font&gt;&lt;/b&gt;&lt;/p&gt;&lt;hr size=&quot;1&quot; style=&quot;border-style:solid;&quot;&gt;&lt;p style=&quot;margin:0px;margin-left:4px;&quot;&gt;&lt;/p&gt;&lt;p style=&quot;margin:0px;margin-left:4px;&quot;&gt;&lt;br&gt;&lt;/p&gt;" style="verticalAlign=top;align=left;overflow=fill;html=1;whiteSpace=wrap;" vertex="1" parent="1">
          <mxGeometry x="4937" y="-3836" width="278" height="140" as="geometry" />
        </mxCell>
        <mxCell id="3Pgrj5yIYafNxYy-8f5n-23" value="&lt;font style=&quot;font-size: 36px;&quot;&gt;Services&lt;/font&gt;" style="text;align=center;fontStyle=1;verticalAlign=middle;spacingLeft=3;spacingRight=3;strokeColor=none;rotatable=0;points=[[0,0.5],[1,0.5]];portConstraint=eastwest;html=1;" vertex="1" parent="1">
          <mxGeometry x="4672" y="-3478" width="80" height="26" as="geometry" />
        </mxCell>
        <mxCell id="3Pgrj5yIYafNxYy-8f5n-24" value="&lt;font style=&quot;font-size: 21px;&quot;&gt;&amp;lt;&amp;lt;Access&amp;gt;&amp;gt;&lt;/font&gt;" style="endArrow=open;endSize=12;dashed=1;html=1;rounded=0;fontSize=12;curved=1;exitX=0.475;exitY=0.998;exitDx=0;exitDy=0;exitPerimeter=0;" edge="1" parent="1" source="3Pgrj5yIYafNxYy-8f5n-2">
          <mxGeometry width="160" relative="1" as="geometry">
            <mxPoint x="5551" y="-3795" as="sourcePoint" />
            <mxPoint x="5557" y="-3427" as="targetPoint" />
          </mxGeometry>
        </mxCell>
        <mxCell id="3Pgrj5yIYafNxYy-8f5n-25" value="" style="shape=folder;fontStyle=1;spacingTop=10;tabWidth=362;tabHeight=59;tabPosition=left;html=1;whiteSpace=wrap;" vertex="1" parent="1">
          <mxGeometry x="4558" y="-3390" width="2085" height="255" as="geometry" />
        </mxCell>
        <mxCell id="3Pgrj5yIYafNxYy-8f5n-26" value="&lt;p style=&quot;margin:0px;margin-top:4px;text-align:center;&quot;&gt;&lt;b&gt;&lt;font style=&quot;font-size: 21px;&quot;&gt;GameManagerService&lt;/font&gt;&lt;/b&gt;&lt;/p&gt;&lt;hr size=&quot;1&quot; style=&quot;border-style:solid;&quot;&gt;&lt;p style=&quot;margin:0px;margin-left:4px;&quot;&gt;&lt;/p&gt;&lt;p style=&quot;margin:0px;margin-left:4px;&quot;&gt;&lt;br&gt;&lt;/p&gt;" style="verticalAlign=top;align=left;overflow=fill;html=1;whiteSpace=wrap;" vertex="1" parent="1">
          <mxGeometry x="4577" y="-3306" width="278" height="140" as="geometry" />
        </mxCell>
        <mxCell id="3Pgrj5yIYafNxYy-8f5n-27" value="&lt;p style=&quot;margin:0px;margin-top:4px;text-align:center;&quot;&gt;&lt;b&gt;&lt;font style=&quot;font-size: 21px;&quot;&gt;GameListService&lt;/font&gt;&lt;/b&gt;&lt;/p&gt;&lt;hr size=&quot;1&quot; style=&quot;border-style:solid;&quot;&gt;&lt;p style=&quot;margin:0px;margin-left:4px;&quot;&gt;&lt;/p&gt;&lt;p style=&quot;margin:0px;margin-left:4px;&quot;&gt;&lt;br&gt;&lt;/p&gt;" style="verticalAlign=top;align=left;overflow=fill;html=1;whiteSpace=wrap;" vertex="1" parent="1">
          <mxGeometry x="4869" y="-3306" width="278" height="140" as="geometry" />
        </mxCell>
        <mxCell id="3Pgrj5yIYafNxYy-8f5n-28" value="&lt;p style=&quot;margin:0px;margin-top:4px;text-align:center;&quot;&gt;&lt;b&gt;&lt;font style=&quot;font-size: 21px;&quot;&gt;GameStateService&lt;/font&gt;&lt;/b&gt;&lt;/p&gt;&lt;hr size=&quot;1&quot; style=&quot;border-style:solid;&quot;&gt;&lt;p style=&quot;margin:0px;margin-left:4px;&quot;&gt;&lt;/p&gt;&lt;p style=&quot;margin:0px;margin-left:4px;&quot;&gt;&lt;br&gt;&lt;/p&gt;" style="verticalAlign=top;align=left;overflow=fill;html=1;whiteSpace=wrap;" vertex="1" parent="1">
          <mxGeometry x="5162" y="-3306" width="278" height="140" as="geometry" />
        </mxCell>
        <mxCell id="3Pgrj5yIYafNxYy-8f5n-29" value="&lt;p style=&quot;margin:0px;margin-top:4px;text-align:center;&quot;&gt;&lt;b&gt;&lt;font style=&quot;font-size: 21px;&quot;&gt;GameService&lt;/font&gt;&lt;/b&gt;&lt;/p&gt;&lt;hr size=&quot;1&quot; style=&quot;border-style:solid;&quot;&gt;&lt;p style=&quot;margin:0px;margin-left:4px;&quot;&gt;&lt;/p&gt;&lt;p style=&quot;margin:0px;margin-left:4px;&quot;&gt;&lt;br&gt;&lt;/p&gt;" style="verticalAlign=top;align=left;overflow=fill;html=1;whiteSpace=wrap;" vertex="1" parent="1">
          <mxGeometry x="5455" y="-3306" width="278" height="140" as="geometry" />
        </mxCell>
        <mxCell id="3Pgrj5yIYafNxYy-8f5n-30" value="&lt;p style=&quot;margin:0px;margin-top:4px;text-align:center;&quot;&gt;&lt;b&gt;&lt;font style=&quot;font-size: 21px;&quot;&gt;EndlessGameService&lt;/font&gt;&lt;/b&gt;&lt;/p&gt;&lt;hr size=&quot;1&quot; style=&quot;border-style:solid;&quot;&gt;&lt;p style=&quot;margin:0px;margin-left:4px;&quot;&gt;&lt;/p&gt;&lt;p style=&quot;margin:0px;margin-left:4px;&quot;&gt;&lt;br&gt;&lt;/p&gt;" style="verticalAlign=top;align=left;overflow=fill;html=1;whiteSpace=wrap;" vertex="1" parent="1">
          <mxGeometry x="5746" y="-3306" width="278" height="140" as="geometry" />
        </mxCell>
        <mxCell id="3Pgrj5yIYafNxYy-8f5n-31" value="&lt;p style=&quot;margin:0px;margin-top:4px;text-align:center;&quot;&gt;&lt;b&gt;&lt;font style=&quot;font-size: 21px;&quot;&gt;GameListService&lt;/font&gt;&lt;/b&gt;&lt;/p&gt;&lt;hr size=&quot;1&quot; style=&quot;border-style:solid;&quot;&gt;&lt;p style=&quot;margin:0px;margin-left:4px;&quot;&gt;&lt;/p&gt;&lt;p style=&quot;margin:0px;margin-left:4px;&quot;&gt;&lt;br&gt;&lt;/p&gt;" style="verticalAlign=top;align=left;overflow=fill;html=1;whiteSpace=wrap;" vertex="1" parent="1">
          <mxGeometry x="6041" y="-3306" width="278" height="140" as="geometry" />
        </mxCell>
        <mxCell id="3Pgrj5yIYafNxYy-8f5n-32" value="" style="shape=folder;fontStyle=1;spacingTop=10;tabWidth=306;tabHeight=61;tabPosition=left;html=1;whiteSpace=wrap;" vertex="1" parent="1">
          <mxGeometry x="4583" y="-3033" width="551" height="819" as="geometry" />
        </mxCell>
        <mxCell id="3Pgrj5yIYafNxYy-8f5n-33" value="" style="shape=folder;fontStyle=1;spacingTop=10;tabWidth=306;tabHeight=61;tabPosition=left;html=1;whiteSpace=wrap;" vertex="1" parent="1">
          <mxGeometry x="5300" y="-3033" width="527" height="824" as="geometry" />
        </mxCell>
        <mxCell id="3Pgrj5yIYafNxYy-8f5n-34" value="" style="shape=folder;fontStyle=1;spacingTop=10;tabWidth=306;tabHeight=61;tabPosition=left;html=1;whiteSpace=wrap;" vertex="1" parent="1">
          <mxGeometry x="5992" y="-3035.5" width="527" height="824" as="geometry" />
        </mxCell>
        <mxCell id="3Pgrj5yIYafNxYy-8f5n-35" value="&lt;font style=&quot;font-size: 21px;&quot;&gt;&amp;lt;&amp;lt;Access&amp;gt;&amp;gt;&lt;/font&gt;" style="endArrow=open;endSize=12;dashed=1;html=1;rounded=0;fontSize=12;curved=1;exitX=0.5;exitY=1;exitDx=0;exitDy=0;exitPerimeter=0;entryX=0;entryY=0;entryDx=306;entryDy=0;entryPerimeter=0;" edge="1" parent="1" source="3Pgrj5yIYafNxYy-8f5n-25" target="3Pgrj5yIYafNxYy-8f5n-32">
          <mxGeometry width="160" relative="1" as="geometry">
            <mxPoint x="5570" y="-3615" as="sourcePoint" />
            <mxPoint x="5567" y="-3417" as="targetPoint" />
          </mxGeometry>
        </mxCell>
        <mxCell id="3Pgrj5yIYafNxYy-8f5n-36" value="&lt;font style=&quot;font-size: 21px;&quot;&gt;&amp;lt;&amp;lt;Access&amp;gt;&amp;gt;&lt;/font&gt;" style="endArrow=open;endSize=12;dashed=1;html=1;rounded=0;fontSize=12;curved=1;exitX=0.5;exitY=1;exitDx=0;exitDy=0;exitPerimeter=0;entryX=0;entryY=0;entryDx=153;entryDy=0;entryPerimeter=0;" edge="1" parent="1" source="3Pgrj5yIYafNxYy-8f5n-25" target="3Pgrj5yIYafNxYy-8f5n-33">
          <mxGeometry width="160" relative="1" as="geometry">
            <mxPoint x="5523" y="-3117" as="sourcePoint" />
            <mxPoint x="5022" y="-2962" as="targetPoint" />
          </mxGeometry>
        </mxCell>
        <mxCell id="3Pgrj5yIYafNxYy-8f5n-37" value="&lt;font style=&quot;font-size: 21px;&quot;&gt;&amp;lt;&amp;lt;Access&amp;gt;&amp;gt;&lt;/font&gt;" style="endArrow=open;endSize=12;dashed=1;html=1;rounded=0;fontSize=12;curved=1;exitX=0.5;exitY=1;exitDx=0;exitDy=0;exitPerimeter=0;entryX=0;entryY=0;entryDx=153;entryDy=0;entryPerimeter=0;" edge="1" parent="1" source="3Pgrj5yIYafNxYy-8f5n-25" target="3Pgrj5yIYafNxYy-8f5n-34">
          <mxGeometry width="160" relative="1" as="geometry">
            <mxPoint x="5523" y="-3117" as="sourcePoint" />
            <mxPoint x="5727" y="-2962" as="targetPoint" />
          </mxGeometry>
        </mxCell>
        <mxCell id="3Pgrj5yIYafNxYy-8f5n-38" value="&lt;font style=&quot;font-size: 36px;&quot;&gt;GameManagement&lt;/font&gt;" style="text;align=center;fontStyle=1;verticalAlign=middle;spacingLeft=3;spacingRight=3;strokeColor=none;rotatable=0;points=[[0,0.5],[1,0.5]];portConstraint=eastwest;html=1;" vertex="1" parent="1">
          <mxGeometry x="4695" y="-3373" width="80" height="26" as="geometry" />
        </mxCell>
        <mxCell id="3Pgrj5yIYafNxYy-8f5n-39" value="&lt;font style=&quot;font-size: 30px;&quot;&gt;RoomManagement&lt;/font&gt;" style="text;align=center;fontStyle=1;verticalAlign=middle;spacingLeft=3;spacingRight=3;strokeColor=none;rotatable=0;points=[[0,0.5],[1,0.5]];portConstraint=eastwest;html=1;" vertex="1" parent="1">
          <mxGeometry x="6101.5" y="-3014" width="80" height="24" as="geometry" />
        </mxCell>
        <mxCell id="3Pgrj5yIYafNxYy-8f5n-40" value="&lt;font style=&quot;font-size: 30px;&quot;&gt;UsersManagement&lt;/font&gt;" style="text;align=center;fontStyle=1;verticalAlign=middle;spacingLeft=3;spacingRight=3;strokeColor=none;rotatable=0;points=[[0,0.5],[1,0.5]];portConstraint=eastwest;html=1;" vertex="1" parent="1">
          <mxGeometry x="5410" y="-3014" width="80" height="24" as="geometry" />
        </mxCell>
        <mxCell id="3Pgrj5yIYafNxYy-8f5n-41" value="&lt;p style=&quot;margin:0px;margin-top:4px;text-align:center;&quot;&gt;&lt;b&gt;&lt;font style=&quot;font-size: 21px;&quot;&gt;QuestionService&lt;/font&gt;&lt;/b&gt;&lt;/p&gt;&lt;hr size=&quot;1&quot; style=&quot;border-style:solid;&quot;&gt;&lt;p style=&quot;margin:0px;margin-left:4px;&quot;&gt;&lt;/p&gt;&lt;p style=&quot;margin:0px;margin-left:4px;&quot;&gt;&lt;br&gt;&lt;/p&gt;" style="verticalAlign=top;align=left;overflow=fill;html=1;whiteSpace=wrap;" vertex="1" parent="1">
          <mxGeometry x="4609" y="-2931" width="278" height="140" as="geometry" />
        </mxCell>
        <mxCell id="3Pgrj5yIYafNxYy-8f5n-42" value="&lt;p style=&quot;margin:0px;margin-top:4px;text-align:center;&quot;&gt;&lt;b&gt;&lt;font style=&quot;font-size: 21px;&quot;&gt;QuizService&lt;/font&gt;&lt;/b&gt;&lt;/p&gt;&lt;hr size=&quot;1&quot; style=&quot;border-style:solid;&quot;&gt;&lt;p style=&quot;margin:0px;margin-left:4px;&quot;&gt;&lt;/p&gt;&lt;p style=&quot;margin:0px;margin-left:4px;&quot;&gt;&lt;br&gt;&lt;/p&gt;" style="verticalAlign=top;align=left;overflow=fill;html=1;whiteSpace=wrap;" vertex="1" parent="1">
          <mxGeometry x="4609" y="-2774" width="278" height="140" as="geometry" />
        </mxCell>
        <mxCell id="3Pgrj5yIYafNxYy-8f5n-43" value="&lt;p style=&quot;margin:0px;margin-top:4px;text-align:center;&quot;&gt;&lt;b&gt;&lt;font style=&quot;font-size: 21px;&quot;&gt;HistoryService&lt;/font&gt;&lt;/b&gt;&lt;/p&gt;&lt;hr size=&quot;1&quot; style=&quot;border-style:solid;&quot;&gt;&lt;p style=&quot;margin:0px;margin-left:4px;&quot;&gt;&lt;/p&gt;&lt;p style=&quot;margin:0px;margin-left:4px;&quot;&gt;&lt;br&gt;&lt;/p&gt;" style="verticalAlign=top;align=left;overflow=fill;html=1;whiteSpace=wrap;" vertex="1" parent="1">
          <mxGeometry x="4609" y="-2619" width="278" height="140" as="geometry" />
        </mxCell>
        <mxCell id="3Pgrj5yIYafNxYy-8f5n-44" value="" style="shape=folder;fontStyle=1;spacingTop=10;tabWidth=561;tabHeight=63;tabPosition=left;html=1;whiteSpace=wrap;" vertex="1" parent="1">
          <mxGeometry x="4902" y="-2112" width="891" height="354" as="geometry" />
        </mxCell>
        <mxCell id="3Pgrj5yIYafNxYy-8f5n-45" value="&lt;font style=&quot;font-size: 30px;&quot;&gt;QuizManagement&lt;/font&gt;" style="text;align=center;fontStyle=1;verticalAlign=middle;spacingLeft=3;spacingRight=3;strokeColor=none;rotatable=0;points=[[0,0.5],[1,0.5]];portConstraint=eastwest;html=1;" vertex="1" parent="1">
          <mxGeometry x="4702.5" y="-3004" width="80" height="24" as="geometry" />
        </mxCell>
        <mxCell id="3Pgrj5yIYafNxYy-8f5n-46" value="&lt;font style=&quot;font-size: 30px;&quot;&gt;ExternalServiceCommunication&lt;/font&gt;" style="text;align=center;fontStyle=1;verticalAlign=middle;spacingLeft=3;spacingRight=3;strokeColor=none;rotatable=0;points=[[0,0.5],[1,0.5]];portConstraint=eastwest;html=1;" vertex="1" parent="1">
          <mxGeometry x="5137" y="-2092" width="80" height="24" as="geometry" />
        </mxCell>
        <mxCell id="3Pgrj5yIYafNxYy-8f5n-47" value="&lt;p style=&quot;margin:0px;margin-top:4px;text-align:center;&quot;&gt;&lt;b&gt;&lt;font style=&quot;font-size: 21px;&quot;&gt;S3Service&lt;/font&gt;&lt;/b&gt;&lt;/p&gt;&lt;hr size=&quot;1&quot; style=&quot;border-style:solid;&quot;&gt;&lt;p style=&quot;margin:0px;margin-left:4px;&quot;&gt;&lt;/p&gt;&lt;p style=&quot;margin:0px;margin-left:4px;&quot;&gt;&lt;br&gt;&lt;/p&gt;" style="verticalAlign=top;align=left;overflow=fill;html=1;whiteSpace=wrap;" vertex="1" parent="1">
          <mxGeometry x="5001" y="-1985" width="278" height="140" as="geometry" />
        </mxCell>
        <mxCell id="3Pgrj5yIYafNxYy-8f5n-48" value="&lt;p style=&quot;margin:0px;margin-top:4px;text-align:center;&quot;&gt;&lt;b&gt;&lt;font style=&quot;font-size: 21px;&quot;&gt;FirebaseAdminService&lt;/font&gt;&lt;/b&gt;&lt;/p&gt;&lt;hr size=&quot;1&quot; style=&quot;border-style:solid;&quot;&gt;&lt;p style=&quot;margin:0px;margin-left:4px;&quot;&gt;&lt;/p&gt;&lt;p style=&quot;margin:0px;margin-left:4px;&quot;&gt;&lt;br&gt;&lt;/p&gt;" style="verticalAlign=top;align=left;overflow=fill;html=1;whiteSpace=wrap;" vertex="1" parent="1">
          <mxGeometry x="5424.5" y="-1985" width="278" height="140" as="geometry" />
        </mxCell>
        <mxCell id="3Pgrj5yIYafNxYy-8f5n-49" value="&lt;p style=&quot;margin:0px;margin-top:4px;text-align:center;&quot;&gt;&lt;b&gt;&lt;font style=&quot;font-size: 21px;&quot;&gt;UserService&lt;/font&gt;&lt;/b&gt;&lt;/p&gt;&lt;hr size=&quot;1&quot; style=&quot;border-style:solid;&quot;&gt;&lt;p style=&quot;margin:0px;margin-left:4px;&quot;&gt;&lt;/p&gt;&lt;p style=&quot;margin:0px;margin-left:4px;&quot;&gt;&lt;br&gt;&lt;/p&gt;" style="verticalAlign=top;align=left;overflow=fill;html=1;whiteSpace=wrap;" vertex="1" parent="1">
          <mxGeometry x="5332" y="-2936" width="271" height="126" as="geometry" />
        </mxCell>
        <mxCell id="3Pgrj5yIYafNxYy-8f5n-50" value="&lt;p style=&quot;margin:0px;margin-top:4px;text-align:center;&quot;&gt;&lt;b&gt;&lt;font style=&quot;font-size: 21px;&quot;&gt;ShopService&lt;/font&gt;&lt;/b&gt;&lt;/p&gt;&lt;hr size=&quot;1&quot; style=&quot;border-style:solid;&quot;&gt;&lt;p style=&quot;margin:0px;margin-left:4px;&quot;&gt;&lt;/p&gt;&lt;p style=&quot;margin:0px;margin-left:4px;&quot;&gt;&lt;br&gt;&lt;/p&gt;" style="verticalAlign=top;align=left;overflow=fill;html=1;whiteSpace=wrap;" vertex="1" parent="1">
          <mxGeometry x="5332" y="-2791" width="268" height="122" as="geometry" />
        </mxCell>
        <mxCell id="3Pgrj5yIYafNxYy-8f5n-51" value="&lt;p style=&quot;margin:0px;margin-top:4px;text-align:center;&quot;&gt;&lt;b&gt;&lt;font style=&quot;font-size: 21px;&quot;&gt;RankService&lt;/font&gt;&lt;/b&gt;&lt;/p&gt;&lt;hr size=&quot;1&quot; style=&quot;border-style:solid;&quot;&gt;&lt;p style=&quot;margin:0px;margin-left:4px;&quot;&gt;&lt;/p&gt;&lt;p style=&quot;margin:0px;margin-left:4px;&quot;&gt;&lt;br&gt;&lt;/p&gt;" style="verticalAlign=top;align=left;overflow=fill;html=1;whiteSpace=wrap;" vertex="1" parent="1">
          <mxGeometry x="5332" y="-2653" width="267" height="121" as="geometry" />
        </mxCell>
        <mxCell id="3Pgrj5yIYafNxYy-8f5n-52" value="&lt;p style=&quot;margin:0px;margin-top:4px;text-align:center;&quot;&gt;&lt;b&gt;&lt;font style=&quot;font-size: 21px;&quot;&gt;MoneyService&lt;/font&gt;&lt;/b&gt;&lt;/p&gt;&lt;hr size=&quot;1&quot; style=&quot;border-style:solid;&quot;&gt;&lt;p style=&quot;margin:0px;margin-left:4px;&quot;&gt;&lt;/p&gt;&lt;p style=&quot;margin:0px;margin-left:4px;&quot;&gt;&lt;br&gt;&lt;/p&gt;" style="verticalAlign=top;align=left;overflow=fill;html=1;whiteSpace=wrap;" vertex="1" parent="1">
          <mxGeometry x="5332" y="-2512" width="270" height="110" as="geometry" />
        </mxCell>
        <mxCell id="3Pgrj5yIYafNxYy-8f5n-53" value="&lt;p style=&quot;margin:0px;margin-top:4px;text-align:center;&quot;&gt;&lt;b&gt;&lt;font style=&quot;font-size: 21px;&quot;&gt;GameListService&lt;/font&gt;&lt;/b&gt;&lt;/p&gt;&lt;hr size=&quot;1&quot; style=&quot;border-style:solid;&quot;&gt;&lt;p style=&quot;margin:0px;margin-left:4px;&quot;&gt;&lt;/p&gt;&lt;p style=&quot;margin:0px;margin-left:4px;&quot;&gt;&lt;br&gt;&lt;/p&gt;" style="verticalAlign=top;align=left;overflow=fill;html=1;whiteSpace=wrap;" vertex="1" parent="1">
          <mxGeometry x="6333" y="-3306" width="278" height="140" as="geometry" />
        </mxCell>
        <mxCell id="3Pgrj5yIYafNxYy-8f5n-54" value="&lt;p style=&quot;margin:0px;margin-top:4px;text-align:center;&quot;&gt;&lt;b&gt;&lt;font style=&quot;font-size: 21px;&quot;&gt;XpService&lt;/font&gt;&lt;/b&gt;&lt;/p&gt;&lt;hr size=&quot;1&quot; style=&quot;border-style:solid;&quot;&gt;&lt;p style=&quot;margin:0px;margin-left:4px;&quot;&gt;&lt;/p&gt;&lt;p style=&quot;margin:0px;margin-left:4px;&quot;&gt;&lt;br&gt;&lt;/p&gt;" style="verticalAlign=top;align=left;overflow=fill;html=1;whiteSpace=wrap;" vertex="1" parent="1">
          <mxGeometry x="5332" y="-2381" width="270" height="117" as="geometry" />
        </mxCell>
        <mxCell id="3Pgrj5yIYafNxYy-8f5n-55" value="&lt;p style=&quot;margin:0px;margin-top:4px;text-align:center;&quot;&gt;&lt;b&gt;&lt;font style=&quot;font-size: 21px;&quot;&gt;ChatService&lt;/font&gt;&lt;/b&gt;&lt;/p&gt;&lt;hr size=&quot;1&quot; style=&quot;border-style:solid;&quot;&gt;&lt;p style=&quot;margin:0px;margin-left:4px;&quot;&gt;&lt;/p&gt;&lt;p style=&quot;margin:0px;margin-left:4px;&quot;&gt;&lt;br&gt;&lt;/p&gt;" style="verticalAlign=top;align=left;overflow=fill;html=1;whiteSpace=wrap;" vertex="1" parent="1">
          <mxGeometry x="6019" y="-2948" width="271" height="126" as="geometry" />
        </mxCell>
        <mxCell id="3Pgrj5yIYafNxYy-8f5n-56" value="&lt;p style=&quot;margin:0px;margin-top:4px;text-align:center;&quot;&gt;&lt;b&gt;&lt;font style=&quot;font-size: 21px;&quot;&gt;RoomService&lt;/font&gt;&lt;/b&gt;&lt;/p&gt;&lt;hr size=&quot;1&quot; style=&quot;border-style:solid;&quot;&gt;&lt;p style=&quot;margin:0px;margin-left:4px;&quot;&gt;&lt;/p&gt;&lt;p style=&quot;margin:0px;margin-left:4px;&quot;&gt;&lt;br&gt;&lt;/p&gt;" style="verticalAlign=top;align=left;overflow=fill;html=1;whiteSpace=wrap;" vertex="1" parent="1">
          <mxGeometry x="6019" y="-2806" width="271" height="126" as="geometry" />
        </mxCell>
        <mxCell id="3Pgrj5yIYafNxYy-8f5n-57" value="&lt;font style=&quot;font-size: 21px;&quot;&gt;&amp;lt;&amp;lt;Access&amp;gt;&amp;gt;&lt;/font&gt;" style="endArrow=open;endSize=12;dashed=1;html=1;rounded=0;fontSize=12;curved=1;exitX=0.25;exitY=1;exitDx=0;exitDy=0;exitPerimeter=0;entryX=0;entryY=0;entryDx=280.5;entryDy=0;entryPerimeter=0;" edge="1" parent="1" source="3Pgrj5yIYafNxYy-8f5n-32" target="3Pgrj5yIYafNxYy-8f5n-44">
          <mxGeometry width="160" relative="1" as="geometry">
            <mxPoint x="5611" y="-3125" as="sourcePoint" />
            <mxPoint x="4899" y="-3023" as="targetPoint" />
          </mxGeometry>
        </mxCell>
        <mxCell id="3Pgrj5yIYafNxYy-8f5n-58" value="&lt;font style=&quot;font-size: 21px;&quot;&gt;&amp;lt;&amp;lt;Access&amp;gt;&amp;gt;&lt;/font&gt;" style="endArrow=open;endSize=12;dashed=1;html=1;rounded=0;fontSize=12;curved=1;exitX=0.5;exitY=1;exitDx=0;exitDy=0;exitPerimeter=0;entryX=0;entryY=0;entryDx=561;entryDy=0;entryPerimeter=0;" edge="1" parent="1" source="3Pgrj5yIYafNxYy-8f5n-33" target="3Pgrj5yIYafNxYy-8f5n-44">
          <mxGeometry width="160" relative="1" as="geometry">
            <mxPoint x="6266" y="-2201" as="sourcePoint" />
            <mxPoint x="5638" y="-2039" as="targetPoint" />
          </mxGeometry>
        </mxCell>
      </root>
    </mxGraphModel>
  </diagram>
</mxfile>
